<?xml version="1.0" standalone="no"?><!DOCTYPE svg PUBLIC "-//W3C//DTD SVG 1.1//EN" "http://www.w3.org/Graphics/SVG/1.1/DTD/svg11.dtd"><svg t="1665650605160" class="icon" viewBox="0 0 1024 1024" version="1.1" xmlns="http://www.w3.org/2000/svg" p-id="2101" xmlns:xlink="http://www.w3.org/1999/xlink" width="64" height="64"><path d="M761.685333 73.301333c96.554667 4.096 148.864 62.378667 148.864 165.461334v546.474666c0 106.709333-56.106667 165.461333-159.317333 165.461334H272.768c-103.253333 0-159.317333-58.752-159.317333-165.461334V238.762667c0-106.709333 56.106667-165.461333 159.317333-165.461334h488.917333z m-278.485333 57.6H272.768c-70.826667 0-101.717333 32.384-101.717333 107.861334v546.474666c0 75.52 30.890667 107.861333 101.717333 107.861334h478.464c70.826667 0 101.717333-32.384 101.717333-107.861334V238.762667c0-71.68-27.861333-104.448-91.221333-107.605334l-0.042667 233.429334c0 38.784-48.725333 60.8-78.592 36.352l2.645334 1.92-64.725334-37.632-59.264 35.754666c-28.373333 23.168-73.472 4.096-78.165333-31.445333l-0.384-4.949333V130.858667z m290.389333 584.704a28.8 28.8 0 0 1 4.266667 57.301334l-4.266667 0.298666H291.114667a28.8 28.8 0 0 1-4.266667-57.301333l4.266667-0.298667h482.474666z m-201.088-144.213333a28.8 28.8 0 0 1 4.266667 57.258667l-4.266667 0.341333H291.114667a28.8 28.8 0 0 1-4.266667-57.301333l4.266667-0.298667h281.386666zM704 130.901333h-163.285333v215.722667l79.701333-48.341333L704 346.88V130.901333z" p-id="2102"></path></svg>